# ProBuilder 5.0.6
# https://unity3d.com/unity/features/worldbuilding/probuilder
# 2023/04/27 3:16:23

mtllib ./Cube1.mtl
o Cube1

g Cube
v 0 -5.982149 0
v -1.076767 -5.982149 0
v -1.076767 -4.183068 0
v -5.960464E-08 -4.183068 0
v -2.153533 -5.982149 0
v -2.153533 -4.183068 0
v -2.153533 -2.383986 0
v -1.076767 -2.383986 0
v -1.192093E-07 -2.383986 0
v -3.2303 -4.183068 0
v -3.2303 -2.383986 0
v -3.2303 -5.982149 0
v -4.307067 -5.982149 0
v -4.307067 -4.183068 0
v -4.307067 -2.383986 0
v -3.2303 -0.5849049 0
v -2.153533 -0.584905 0
v -4.307067 -0.5849048 0
v -4.307067 1.214177 0
v -3.2303 1.214177 0
v -2.153533 1.214177 0
v -1.076767 -0.5849049 0
v -1.076767 1.214177 0
v -4.307067 -5.982149 -0.4838692
v -4.307067 -4.183068 -0.4838692
v -4.307067 -5.982149 -0.9677384
v -4.307067 -4.183068 -0.9677384
v -4.307067 -2.383986 -0.9677384
v -4.307067 -2.383986 -0.4838692
v -4.307067 -4.183068 -1.451608
v -4.307067 -2.383986 -1.451608
v -4.307067 -5.982149 -1.451608
v -4.307067 -5.982149 -1.935477
v -4.307067 -4.183068 -1.935477
v -4.307067 -2.383986 -1.935477
v -4.307067 -0.5849049 -1.451608
v -4.307067 -0.584905 -0.9677384
v -4.307067 -0.5849048 -1.935477
v -4.307067 1.214177 -1.935477
v -4.307067 1.214177 -1.451608
v -4.307067 1.214177 -0.9677384
v -4.307067 -0.5849049 -0.4838692
v -4.307067 1.214177 -0.4838692
v -3.2303 -4.183068 -1.935477
v -3.2303 -2.383986 -1.935477
v -3.2303 -5.982149 -1.935477
v -2.153533 -5.982149 -1.935477
v -2.153533 -4.183068 -1.935477
v -2.153533 -2.383986 -1.935477
v -1.192093E-07 -2.383986 -1.935477
v -1.076767 -2.383986 -1.935477
v -1.076767 -4.183068 -1.935477
v -5.960464E-08 -4.183068 -1.935477
v -1.076767 -5.982149 -1.935477
v 0 -5.982149 -1.935477
v -1.076767 1.214177 -1.935477
v -2.153533 1.214177 -1.935477
v -2.153533 -0.584905 -1.935477
v -1.076767 -0.5849049 -1.935477
v -3.2303 1.214177 -1.935477
v -3.2303 -0.5849049 -1.935477
v -5.960464E-08 -4.183068 -1.451607
v -1.192093E-07 -2.383986 -1.451608
v 0 -5.982149 -1.451608
v 0 -5.982149 -0.9677384
v -5.960464E-08 -4.183068 -0.9677384
v -1.192093E-07 -2.383986 -0.9677384
v -1.192093E-07 -2.383986 -0.4838692
v -5.960464E-08 -4.183068 -0.4838692
v 0 -5.982149 -0.4838692
v 1.290529 0.630932 0
v 1.290529 0.630932 -0.4838691
v 1.290529 -0.1584135 -0.4838691
v 1.290529 -0.1584135 0
v 1.290529 0.630932 -0.9677384
v 1.290529 -0.1584135 -0.9677384
v -1.721878E-07 -0.784905 -0.9677384
v -1.721878E-07 -0.7849049 -0.4838692
v -1.721878E-07 -0.7849048 0
v 1.290529 0.630932 -1.451608
v 1.290529 -0.1584135 -1.451607
v 1.290529 0.630932 -1.935477
v 1.290529 -0.1584135 -1.935477
v -1.721878E-07 -0.7849048 -1.935477
v -1.721878E-07 -0.7849049 -1.451607
v -2.153533 1.214177 -0.9677384
v -1.076767 1.214177 -0.9677384
v -1.076767 1.214177 -0.4838692
v -2.153533 1.214177 -0.4838692
v 0 1.010478 -0.9677384
v 0 1.010478 -0.4838691
v 0 1.010478 0
v -3.2303 1.214177 -0.9677384
v -3.2303 1.214177 -0.4838692
v -3.2303 1.214177 -1.451607
v -2.153533 1.214177 -1.451608
v -1.076767 1.214177 -1.451607
v 0 1.010478 -1.935477
v 0 1.010478 -1.451608
v -2.153533 -5.982149 -1.451608
v -1.076767 -5.982149 -1.451608
v -2.153533 -5.982149 -0.9677384
v -1.076767 -5.982149 -0.9677384
v -3.2303 -5.982149 -1.451608
v -3.2303 -5.982149 -0.9677384
v -3.2303 -5.982149 -0.4838692
v -2.153533 -5.982149 -0.4838692
v -1.076767 -5.982149 -0.4838692
v 1.090528 0.830932 -1.451608
v 1.090528 0.830932 -1.935477
v 1.090528 0.830932 -0.9677384
v 0.1999998 -0.5849048 -1.935477
v 0.1999998 -0.5849049 -1.451607
v 1.090528 -0.3584134 -1.935477
v 1.090528 -0.3584135 -1.451607
v 0.1999998 -0.584905 -0.9677384
v 1.090528 -0.3584135 -0.9677384
v 0.1999998 -0.5849049 -0.4838692
v 1.090528 -0.3584135 -0.4838691
v 0.1999998 -0.5849048 0
v 1.090528 -0.3584134 0
v 1.090528 0.830932 -0.4838691
v 1.090528 0.830932 0
v -0.2000002 -0.5849048 0
v -1.854401E-07 -0.3849049 0
v -0.2000002 -0.5849048 -1.935477
v -1.854401E-07 -0.3849049 -1.935477
v -1.788139E-07 -0.5849048 0
v -1.804705E-07 -0.5849048 -1.935477

vt 0 -5.982149
vt -1.076767 -5.982149
vt -1.076767 -4.183068
vt -5.960464E-08 -4.183068
vt -2.153533 -5.982149
vt -2.153533 -4.183068
vt -2.153533 -2.383986
vt -1.076767 -2.383986
vt -1.192093E-07 -2.383986
vt -3.2303 -4.183068
vt -3.2303 -2.383986
vt -3.2303 -5.982149
vt -4.307067 -5.982149
vt -4.307067 -4.183068
vt -4.307067 -2.383986
vt -3.2303 -0.5849049
vt -2.153533 -0.584905
vt -4.307067 -0.5849048
vt -4.307067 1.214177
vt -3.2303 1.214177
vt -2.153533 1.214177
vt -1.076767 -0.5849049
vt -1.076767 1.214177
vt -0.4838692 -5.982149
vt -0.4838692 -4.183068
vt -0.9677384 -5.982149
vt -0.9677384 -4.183068
vt -0.9677384 -2.383986
vt -0.4838692 -2.383986
vt -1.451608 -4.183068
vt -1.451608 -2.383986
vt -1.451608 -5.982149
vt -1.935477 -5.982149
vt -1.935477 -4.183068
vt -1.935477 -2.383986
vt -1.451608 -0.5849049
vt -0.9677384 -0.584905
vt -1.935477 -0.5849048
vt -1.935477 1.214177
vt -1.451608 1.214177
vt -0.9677384 1.214177
vt -0.4838692 -0.5849049
vt 0 -0.5849048
vt -0.4838692 1.214177
vt 0 1.214177
vt 4.307067 -2.383986
vt 4.307067 -4.183068
vt 3.2303 -4.183068
vt 3.2303 -2.383986
vt 4.307067 -5.982149
vt 3.2303 -5.982149
vt 2.153533 -5.982149
vt 2.153533 -4.183068
vt 2.153533 -2.383986
vt 1.076767 -2.383986
vt 1.076767 -4.183068
vt 1.076767 -5.982149
vt 1.076767 1.214177
vt 2.153533 1.214177
vt 2.153533 -0.584905
vt 1.076767 -0.5849049
vt 3.2303 1.214177
vt 3.2303 -0.5849049
vt 4.307067 1.214177
vt 4.307067 -0.5849048
vt 1.935477 -2.383986
vt 1.935477 -4.183068
vt 1.451607 -4.183068
vt 1.451608 -2.383986
vt 1.935477 -5.982149
vt 1.451608 -5.982149
vt 0.9677384 -5.982149
vt 0.9677384 -4.183068
vt 0.9677384 -2.383986
vt 0.4838692 -2.383986
vt 0.4838692 -4.183068
vt 0.4838692 -5.982149
vt 0 1.014177
vt 0.4838691 1.014177
vt 0.4838691 -0.3849049
vt 0 -0.3849049
vt 0.9677384 1.014177
vt 0.9677384 -0.384905
vt 0.9677384 -0.784905
vt 0.4838692 -0.7849049
vt 6.077031E-30 -0.7849048
vt 1.451608 1.014177
vt 1.451607 -0.3849049
vt 1.935477 1.014177
vt 1.935477 -0.3849049
vt 1.935477 -0.7849048
vt 1.451607 -0.7849049
vt 2.207799 -0.9677384
vt 1.132204 -0.9677384
vt 1.132204 -0.4838692
vt 2.207799 -0.4838692
vt 0.04711095 -0.9677384
vt 0.04711095 -0.4838691
vt 0.04711095 0
vt 1.132204 0
vt 2.207799 0
vt 4.358991 -0.9677384
vt 3.283395 -0.9677384
vt 3.283395 -0.4838692
vt 4.358991 -0.4838692
vt 3.283395 0
vt 4.358991 0
vt 4.358991 -1.935477
vt 3.283395 -1.935477
vt 3.283395 -1.451607
vt 4.358991 -1.451608
vt 2.207799 -1.935477
vt 2.207799 -1.451608
vt 1.132204 -1.935477
vt 1.132204 -1.451607
vt 0.04711095 -1.935477
vt 0.04711095 -1.451608
vt -2.153533 -1.935477
vt -2.153533 -1.451608
vt -1.076767 -1.451608
vt -1.076767 -1.935477
vt -2.153533 -0.9677384
vt -1.076767 -0.9677384
vt 0 -0.9677384
vt 0 -1.451608
vt 0 -1.935477
vt -4.307067 -1.935477
vt -4.307067 -1.451608
vt -3.2303 -1.451608
vt -3.2303 -1.935477
vt -4.307067 -0.9677384
vt -3.2303 -0.9677384
vt -4.307067 -0.4838692
vt -3.2303 -0.4838692
vt -4.307067 0
vt -3.2303 0
vt -2.153533 0
vt -2.153533 -0.4838692
vt -1.076767 -0.4838692
vt -1.076767 0
vt 0 0
vt 0 -0.4838692
vt -0.8095602 -1.451608
vt -0.8095602 -1.935477
vt -0.8095602 -0.9677384
vt 0.1999998 -1.935477
vt 0.1999998 -1.451607
vt 0.8095601 -1.935477
vt 0.8095601 -1.451607
vt 0.1999998 -0.9677383
vt 0.8095601 -0.9677383
vt 0.1999998 -0.4838692
vt 0.8095601 -0.4838692
vt 0.1999998 -7.205056E-08
vt 0.8095601 -7.205056E-08
vt -0.8095602 -0.4838691
vt -0.8095602 0
vt -0.4664052 0
vt -0.4664052 -0.4838691
vt -0.1835624 0
vt -0.1835624 -0.4838691
vt -0.4664052 -0.9677384
vt -0.1835624 -0.9677384
vt -0.4664052 -1.451608
vt -0.1835624 -1.451608
vt -0.4664052 -1.935477
vt -0.1835624 -1.935477
vt -0.5550116 -4.834361E-08
vt -0.5550117 -0.4838693
vt -0.2721689 -4.834361E-08
vt -0.272169 -0.4838692
vt -0.5550117 -0.9677384
vt -0.272169 -0.9677384
vt -0.5550117 -1.451607
vt -0.272169 -1.451607
vt -0.5550116 -1.935477
vt -0.2721689 -1.935477
vt -0.2000002 -0.5849048
vt 0 1.010478
vt 0.2000002 -0.5849048
vt 0.1999998 -0.5849048
vt -0.1999998 -0.5849048
vt 0.8005262 -0.4838691
vt 0.8005262 0
vt 0.5176834 -0.4838691
vt 0.5176835 0
vt 0.8005262 -0.9677384
vt 0.5176834 -0.9677384
vt 0.8005262 -1.451607
vt 0.5176834 -1.451607
vt 0.8005266 -1.935477
vt 0.5176839 -1.935477
vt 1.090528 0.830932
vt 1.290529 0.630932
vt 1.290529 -0.1584135
vt 1.090528 -0.3584134
vt -1.090528 -0.3584134
vt -1.290529 -0.1584135
vt -1.290529 0.630932
vt -1.090528 0.830932

vn 0 0 1
vn -1 0 0
vn 0 0 -1
vn 1 3.31306E-08 1.632456E-14
vn 0 1 0
vn 0.1858794 0.9825726 0
vn 0 -1 0
vn 0.162454 0.9867161 0
vn 0.2464866 -0.9691463 -1.193827E-07
vn 0.7071068 0.7071068 0
vn 0.7071068 -0.7071068 8.710381E-08

usemtl Lit
f 79/86/1 8/8/1 9/9/1
f 22/22/1 8/8/1 79/86/1
f 124/178/1 22/22/1 79/86/1
f 125/81/1 22/22/1 124/178/1
f 125/81/1 23/23/1 22/22/1
f 92/179/1 23/23/1 125/81/1
f 127/81/3 56/58/3 98/179/3
f 59/61/3 56/58/3 127/81/3
f 126/180/3 59/61/3 127/81/3
f 84/86/3 59/61/3 126/180/3
f 84/86/3 51/55/3 59/61/3
f 50/9/3 51/55/3 84/86/3
f 120/181/1 128/43/1 79/86/1
f 125/81/1 128/43/1 120/181/1
f 124/178/1 128/43/1 125/81/1
f 79/86/1 128/43/1 124/178/1
f 84/86/3 129/43/3 112/182/3
f 126/180/3 129/43/3 84/86/3
f 127/81/3 129/43/3 126/180/3
f 112/182/3 129/43/3 127/81/3
f 120/181/1 121/196/1 74/195/1
f 74/195/1 125/81/1 120/181/1
f 71/194/1 125/81/1 74/195/1
f 92/179/1 125/81/1 71/194/1
f 123/193/1 92/179/1 71/194/1
f 82/199/3 98/179/3 110/200/3
f 82/199/3 127/81/3 98/179/3
f 83/198/3 127/81/3 82/199/3
f 112/182/3 127/81/3 83/198/3
f 83/198/3 114/197/3 112/182/3
f 2/2/1 1/1/1 4/4/1
f 4/4/1 3/3/1 2/2/1
f 6/6/1 5/5/1 2/2/1
f 2/2/1 3/3/1 6/6/1
f 7/7/1 6/6/1 3/3/1
f 3/3/1 8/8/1 7/7/1
f 8/8/1 3/3/1 4/4/1
f 4/4/1 9/9/1 8/8/1
f 11/11/1 10/10/1 6/6/1
f 6/6/1 7/7/1 11/11/1
f 10/10/1 12/12/1 5/5/1
f 5/5/1 6/6/1 10/10/1
f 14/14/1 13/13/1 12/12/1
f 12/12/1 10/10/1 14/14/1
f 14/14/1 10/10/1 11/11/1
f 11/11/1 15/15/1 14/14/1
f 11/11/1 7/7/1 17/17/1
f 17/17/1 16/16/1 11/11/1
f 15/15/1 11/11/1 16/16/1
f 16/16/1 18/18/1 15/15/1
f 19/19/1 18/18/1 16/16/1
f 16/16/1 20/20/1 19/19/1
f 20/20/1 16/16/1 17/17/1
f 17/17/1 21/21/1 20/20/1
f 17/17/1 7/7/1 8/8/1
f 8/8/1 22/22/1 17/17/1
f 17/17/1 22/22/1 23/23/1
f 23/23/1 21/21/1 17/17/1
f 25/25/2 24/24/2 13/1/2
f 13/1/2 14/4/2 25/25/2
f 27/27/2 26/26/2 24/24/2
f 24/24/2 25/25/2 27/27/2
f 28/28/2 27/27/2 25/25/2
f 25/25/2 29/29/2 28/28/2
f 29/29/2 25/25/2 14/4/2
f 14/4/2 15/9/2 29/29/2
f 31/31/2 30/30/2 27/27/2
f 27/27/2 28/28/2 31/31/2
f 30/30/2 32/32/2 26/26/2
f 26/26/2 27/27/2 30/30/2
f 34/34/2 33/33/2 32/32/2
f 32/32/2 30/30/2 34/34/2
f 34/34/2 30/30/2 31/31/2
f 31/31/2 35/35/2 34/34/2
f 31/31/2 28/28/2 37/37/2
f 37/37/2 36/36/2 31/31/2
f 35/35/2 31/31/2 36/36/2
f 36/36/2 38/38/2 35/35/2
f 39/39/2 38/38/2 36/36/2
f 36/36/2 40/40/2 39/39/2
f 40/40/2 36/36/2 37/37/2
f 37/37/2 41/41/2 40/40/2
f 42/42/2 29/29/2 15/9/2
f 15/9/2 18/43/2 42/42/2
f 37/37/2 28/28/2 29/29/2
f 29/29/2 42/42/2 37/37/2
f 41/41/2 37/37/2 42/42/2
f 42/42/2 43/44/2 41/41/2
f 43/44/2 42/42/2 18/43/2
f 18/43/2 19/45/2 43/44/2
f 34/47/3 35/46/3 45/49/3
f 45/49/3 44/48/3 34/47/3
f 33/50/3 34/47/3 44/48/3
f 44/48/3 46/51/3 33/50/3
f 47/52/3 46/51/3 44/48/3
f 44/48/3 48/53/3 47/52/3
f 48/53/3 44/48/3 45/49/3
f 45/49/3 49/54/3 48/53/3
f 52/56/3 51/55/3 50/9/3
f 50/9/3 53/4/3 52/56/3
f 48/53/3 49/54/3 51/55/3
f 51/55/3 52/56/3 48/53/3
f 47/52/3 48/53/3 52/56/3
f 52/56/3 54/57/3 47/52/3
f 54/57/3 52/56/3 53/4/3
f 53/4/3 55/1/3 54/57/3
f 57/59/3 56/58/3 59/61/3
f 59/61/3 58/60/3 57/59/3
f 49/54/3 58/60/3 59/61/3
f 59/61/3 51/55/3 49/54/3
f 58/60/3 61/63/3 60/62/3
f 60/62/3 57/59/3 58/60/3
f 39/64/3 60/62/3 61/63/3
f 61/63/3 38/65/3 39/64/3
f 45/49/3 35/46/3 38/65/3
f 38/65/3 61/63/3 45/49/3
f 49/54/3 45/49/3 61/63/3
f 61/63/3 58/60/3 49/54/3
f 62/68/4 53/67/4 50/66/4
f 50/66/4 63/69/4 62/68/4
f 53/67/4 62/68/4 64/71/4
f 64/71/4 55/70/4 53/67/4
f 65/72/4 64/71/4 62/68/4
f 62/68/4 66/73/4 65/72/4
f 66/73/4 62/68/4 63/69/4
f 63/69/4 67/74/4 66/73/4
f 69/76/4 68/75/4 9/9/4
f 9/9/4 4/4/4 69/76/4
f 67/74/4 68/75/4 69/76/4
f 69/76/4 66/73/4 67/74/4
f 66/73/4 69/76/4 70/77/4
f 70/77/4 65/72/4 66/73/4
f 69/76/4 4/4/4 1/1/4
f 1/1/4 70/77/4 69/76/4
f 73/80/4 72/79/4 71/78/4
f 71/78/4 74/81/4 73/80/4
f 75/82/4 72/79/4 73/80/4
f 73/80/4 76/83/4 75/82/4
f 77/84/4 78/85/4 68/75/4
f 68/75/4 67/74/4 77/84/4
f 68/75/4 78/85/4 79/86/4
f 79/86/4 9/9/4 68/75/4
f 76/83/4 81/88/4 80/87/4
f 80/87/4 75/82/4 76/83/4
f 83/90/4 82/89/4 80/87/4
f 80/87/4 81/88/4 83/90/4
f 63/69/4 50/66/4 84/91/4
f 84/91/4 85/92/4 63/69/4
f 67/74/4 63/69/4 85/92/4
f 85/92/4 77/84/4 67/74/4
f 88/95/5 87/94/5 86/93/5
f 86/93/5 89/96/5 88/95/5
f 91/98/6 90/97/6 87/94/6
f 87/94/6 88/95/6 91/98/6
f 92/99/6 91/98/6 88/95/6
f 88/95/6 23/100/6 92/99/6
f 23/100/5 88/95/5 89/96/5
f 89/96/5 21/101/5 23/100/5
f 94/104/5 93/103/5 41/102/5
f 41/102/5 43/105/5 94/104/5
f 89/96/5 86/93/5 93/103/5
f 93/103/5 94/104/5 89/96/5
f 21/101/5 89/96/5 94/104/5
f 94/104/5 20/106/5 21/101/5
f 20/106/5 94/104/5 43/105/5
f 43/105/5 19/107/5 20/106/5
f 60/109/5 39/108/5 40/111/5
f 40/111/5 95/110/5 60/109/5
f 96/113/5 57/112/5 60/109/5
f 60/109/5 95/110/5 96/113/5
f 86/93/5 96/113/5 95/110/5
f 95/110/5 93/103/5 86/93/5
f 93/103/5 95/110/5 40/111/5
f 40/111/5 41/102/5 93/103/5
f 56/114/5 57/112/5 96/113/5
f 96/113/5 97/115/5 56/114/5
f 99/117/6 98/116/6 56/114/6
f 56/114/6 97/115/6 99/117/6
f 90/97/6 99/117/6 97/115/6
f 97/115/6 87/94/6 90/97/6
f 87/94/5 97/115/5 96/113/5
f 96/113/5 86/93/5 87/94/5
f 101/120/7 100/119/7 47/118/7
f 47/118/7 54/121/7 101/120/7
f 103/123/7 102/122/7 100/119/7
f 100/119/7 101/120/7 103/123/7
f 65/124/7 103/123/7 101/120/7
f 101/120/7 64/125/7 65/124/7
f 64/125/7 101/120/7 54/121/7
f 54/121/7 55/126/7 64/125/7
f 33/127/7 46/130/7 104/129/7
f 104/129/7 32/128/7 33/127/7
f 32/128/7 104/129/7 105/132/7
f 105/132/7 26/131/7 32/128/7
f 100/119/7 102/122/7 105/132/7
f 105/132/7 104/129/7 100/119/7
f 100/119/7 104/129/7 46/130/7
f 46/130/7 47/118/7 100/119/7
f 26/131/7 105/132/7 106/134/7
f 106/134/7 24/133/7 26/131/7
f 24/133/7 106/134/7 12/136/7
f 12/136/7 13/135/7 24/133/7
f 107/138/7 5/137/7 12/136/7
f 12/136/7 106/134/7 107/138/7
f 107/138/7 106/134/7 105/132/7
f 105/132/7 102/122/7 107/138/7
f 108/139/7 107/138/7 102/122/7
f 102/122/7 103/123/7 108/139/7
f 2/140/7 5/137/7 107/138/7
f 107/138/7 108/139/7 2/140/7
f 1/141/7 2/140/7 108/139/7
f 108/139/7 70/142/7 1/141/7
f 70/142/7 108/139/7 103/123/7
f 103/123/7 65/124/7 70/142/7
f 110/144/8 98/126/8 99/125/8
f 99/125/8 109/143/8 110/144/8
f 109/143/8 99/125/8 90/124/8
f 90/124/8 111/145/8 109/143/8
f 115/149/9 113/147/9 112/146/9
f 112/146/9 114/148/9 115/149/9
f 117/151/9 116/150/9 113/147/9
f 113/147/9 115/149/9 117/151/9
f 119/153/9 118/152/9 116/150/9
f 116/150/9 117/151/9 119/153/9
f 121/155/9 120/154/9 118/152/9
f 118/152/9 119/153/9 121/155/9
f 111/145/8 90/124/8 91/142/8
f 91/142/8 122/156/8 111/145/8
f 122/156/8 91/142/8 92/141/8
f 92/141/8 123/157/8 122/156/8
f 123/160/10 71/158/10 72/159/10
f 72/159/10 122/161/10 123/160/10
f 122/161/10 72/159/10 75/162/10
f 75/162/10 111/163/10 122/161/10
f 111/163/10 75/162/10 80/164/10
f 80/164/10 109/165/10 111/163/10
f 109/165/10 80/164/10 82/166/10
f 82/166/10 110/167/10 109/165/10
f 120/170/11 79/168/11 78/169/11
f 78/169/11 118/171/11 120/170/11
f 118/171/11 78/169/11 77/172/11
f 77/172/11 116/173/11 118/171/11
f 116/173/11 77/172/11 85/174/11
f 85/174/11 113/175/11 116/173/11
f 113/175/11 85/174/11 84/176/11
f 84/176/11 112/177/11 113/175/11
f 119/185/11 73/183/11 74/184/11
f 74/184/11 121/186/11 119/185/11
f 117/188/11 76/187/11 73/183/11
f 73/183/11 119/185/11 117/188/11
f 115/190/11 81/189/11 76/187/11
f 76/187/11 117/188/11 115/190/11
f 114/192/11 83/191/11 81/189/11
f 81/189/11 115/190/11 114/192/11

