# ProBuilder 5.0.7
# https://unity3d.com/unity/features/worldbuilding/probuilder
# 2023/04/27 3:32:45

mtllib ./Cube.mtl
o Cube

g Cube
v -4.768372E-07 0 0
v -4.768372E-07 0 2.076975
v -0.1355398 7.15845 0
v -0.1355398 7.15845 2.076975
v -3.926243 6.448523 2.076975
v -3.926243 6.448523 0
v -4.122826 0 0
v -4.122826 0 2.076975
v -16.94352 4.469161 0
v -16.94352 5.138594 0
v -16.94352 5.138594 1.038488
v -16.94352 4.469161 1.038488
v -16.94352 5.138594 2.076975
v -16.94352 4.469161 2.076975
v -4.249352 6.256815 0
v -4.249352 6.256815 2.076975
v -5.036266 5.293485 2.076975
v -5.142621 5.163287 1.041046
v -5.036266 5.293485 0
v -5.362792 5.138594 0
v -5.362792 5.138594 1.038488
v -10.0054 5.138594 0
v -10.0054 5.138594 1.038488
v -5.362792 5.138594 2.076975
v -10.0054 5.138594 2.076975
v -10.0054 -0.5088654 1.038488
v -10.0054 -0.5088654 0
v -10.5054 -0.5088654 1.038488
v -10.5054 -0.5088654 0
v -10.0054 4.469161 0
v -10.5054 4.469161 0
v -10.5054 5.138594 0
v -10.0054 4.469161 2.076975
v -10.5054 5.138594 2.076975
v -10.5054 4.469161 2.076975
v -10.5054 5.138594 1.038488
v -10.0054 -0.5088654 2.076975
v -10.5054 -0.5088654 2.076975
v -10.5054 4.469161 1.038488
v -10.0054 4.469161 1.038488
v -16.82703 -0.6707325 2.076975
v -16.82703 -0.6707325 1.557732
v -16.82703 0.4264545 1.557732
v -16.82703 0.4264545 2.076975
v -16.82703 -0.6707325 1.038488
v -16.82703 0.4264545 1.038488
v -5.162792 1.31363 1.038488
v -5.162792 4.469161 1.038488
v -5.162792 4.469161 1.557732
v -5.162792 1.31363 1.557732
v -5.162792 4.469161 2.076975
v -5.162792 1.31363 2.076975
v -16.82703 -0.6707325 0.5192438
v -16.82703 0.4264545 0.5192438
v -16.82703 -0.6707325 0
v -16.82703 0.4264545 0
v -5.162792 1.31363 0
v -5.162792 4.469161 0
v -5.162792 4.469161 0.5192438
v -5.162792 1.31363 0.5192438
v -5.162792 0 1.038488
v -5.162792 0 1.557732
v -5.162792 0 2.076975
v -5.162792 0 0
v -5.162792 0 0.5192438
v -5.662792 0 2.076975
v -5.662792 0 1.557732
v -5.662792 1.097187 2.076975
v -5.662792 0 0
v -5.662792 1.097187 0
v -5.662792 1.097187 1.557732
v -5.662792 0 1.038488
v -5.662792 1.097187 1.038488
v -5.662792 0 0.5192438
v -5.662792 1.097187 0.5192438
v -6.162792 -0.07478571 2.076975
v -6.162792 -0.07478571 1.557732
v -6.162792 1.022401 2.076975
v -6.162792 -0.07478571 0
v -6.162792 1.022401 0
v -6.162792 1.022401 1.557732
v -6.162792 -0.07478571 1.038488
v -6.162792 1.022401 1.038488
v -6.162792 -0.07478571 0.5192438
v -6.162792 1.022401 0.5192438
v -7.081623 -0.07478571 2.076975
v -7.081623 -0.07478571 1.557732
v -7.081623 1.022401 2.076975
v -7.081623 -0.07478571 0
v -7.081623 1.022401 0
v -7.081623 1.022401 1.557732
v -7.081623 -0.07478571 1.038488
v -7.081623 1.022401 1.038488
v -7.081623 -0.07478571 0.5192438
v -7.081623 1.022401 0.5192438
v -7.581623 -0.4896255 2.076975
v -7.581623 -0.4896255 1.557732
v -7.581623 0.6075616 2.076975
v -7.581623 -0.4896255 0
v -7.581623 0.6075616 0
v -7.581623 0.6075616 1.557732
v -7.581623 -0.4896255 1.038488
v -7.581623 0.6075616 1.038488
v -7.581623 -0.4896255 0.5192438
v -7.581623 0.6075616 0.5192438
v -8.68611 -0.4896255 2.076975
v -8.68611 -0.4896255 1.557732
v -8.68611 0.6075616 2.076975
v -8.68611 -0.4896255 0
v -8.68611 0.6075616 0
v -8.68611 0.6075616 1.557732
v -8.68611 -0.4896255 1.038488
v -8.68611 0.6075616 1.038488
v -8.68611 -0.4896255 0.5192438
v -8.68611 0.6075616 0.5192438
v -9.18611 -0.114635 2.076975
v -9.18611 -0.114635 1.557732
v -9.18611 0.9825521 2.076975
v -9.18611 -0.114635 0
v -9.18611 0.9825521 0
v -9.18611 0.9825521 1.557732
v -9.18611 -0.114635 1.038488
v -9.18611 0.9825521 1.038488
v -9.18611 -0.114635 0.5192438
v -9.18611 0.9825521 0.5192438
v -11.10909 -0.114635 2.076975
v -11.10909 -0.114635 1.557732
v -11.10909 0.9825521 2.076975
v -11.10909 -0.114635 0
v -11.10909 0.9825521 0
v -11.10909 0.9825521 1.557732
v -11.10909 -0.114635 1.038488
v -11.10909 0.9825521 1.038488
v -11.10909 -0.114635 0.5192438
v -11.10909 0.9825521 0.5192438
v -11.60909 -0.3729692 2.076975
v -11.60909 -0.3729692 1.557732
v -11.60909 0.7242179 2.076975
v -11.60909 -0.3729692 0
v -11.60909 0.7242179 0
v -11.60909 0.7242179 1.557732
v -11.60909 -0.3729692 1.038488
v -11.60909 0.7242179 1.038488
v -11.60909 -0.3729692 0.5192438
v -11.60909 0.7242179 0.5192438
v -12.98831 -0.6707325 2.076975
v -12.98831 -0.6707325 1.557732
v -12.98831 0.4264545 2.076975
v -12.98831 -0.6707325 0
v -12.98831 0.4264545 0
v -12.98831 0.4264545 1.557732
v -12.98831 -0.6707325 1.038488
v -12.98831 0.4264545 1.038488
v -12.98831 -0.6707325 0.5192438
v -12.98831 0.4264545 0.5192438
v -5.162792 4.938594 0
v -5.162792 4.938594 2.076975
v -4.122826 6.211707 2.076975
v -4.122826 6.211707 0

vt 0 9.026897E-09
vt -2.076975 9.026897E-09
vt 0 7.159733
vt -2.076975 7.159733
vt -1.18451 2.076975
vt 2.672099 2.076975
vt -1.18451 0
vt 2.672099 0
vt -4.122826 0
vt -4.768372E-07 2.076975
vt -4.122826 2.076975
vt 0 4.469161
vt 0 5.138594
vt 1.038488 5.138594
vt 1.038488 4.469161
vt 2.076975 5.138594
vt 2.076975 4.469161
vt -2.454271E-08 2.157361
vt 2.076975 2.157361
vt 2.076975 0.9134799
vt 1.041046 0.7453642
vt -2.908765E-08 0.9134799
vt 5.362792 0
vt 5.362792 1.038488
vt 10.0054 0
vt 10.0054 1.038488
vt 5.362792 2.076975
vt 10.0054 2.076975
vt -10.0054 1.038488
vt -10.0054 0
vt -10.5054 1.038488
vt -10.5054 0
vt 10.0054 4.469161
vt 10.0054 5.138594
vt 10.5054 4.469161
vt 10.5054 5.138594
vt -10.0054 5.138594
vt -10.0054 4.469161
vt -10.5054 5.138594
vt -10.5054 4.469161
vt 10.5054 0
vt 10.5054 1.038488
vt -10.0054 2.076975
vt -10.5054 2.076975
vt 10.5054 2.076975
vt -16.94352 1.038488
vt -16.94352 0
vt 16.94352 4.469161
vt 16.94352 5.138594
vt -16.94352 5.138594
vt -16.94352 4.469161
vt 16.94352 0
vt 16.94352 1.038488
vt -16.94352 2.076975
vt 16.94352 2.076975
vt -2.076975 4.469161
vt -1.038488 4.469161
vt -2.076975 -0.5088654
vt -1.038488 -0.5088654
vt -10.5054 -0.5088654
vt -10.0054 -0.5088654
vt 10.0054 -0.5088654
vt 10.5054 -0.5088654
vt 1.038488 -0.5088654
vt 2.076975 -0.5088654
vt 0 -0.5088654
vt 2.076975 -0.6707325
vt 1.557732 -0.6707325
vt 1.557732 0.4264545
vt 2.076975 0.4264545
vt 1.038488 -0.6707325
vt 1.038488 0.4264545
vt 1.038488 1.31363
vt 1.557732 4.469161
vt 1.557732 1.31363
vt 2.076975 1.31363
vt 0.5192438 -0.6707325
vt 0.5192438 0.4264545
vt 0 -0.6707325
vt 0 0.4264545
vt 0 1.31363
vt 0.5192438 4.469161
vt 0.5192438 1.31363
vt -5.162792 1.038488
vt -5.162792 1.557732
vt -5.162792 2.076975
vt -5.162792 0
vt -5.162792 0.5192438
vt -5.662792 2.076975
vt -5.662792 1.557732
vt -5.162792 1.31363
vt -5.662792 1.097187
vt -5.662792 0
vt 5.162792 0
vt 5.162792 1.31363
vt 5.662792 0
vt 5.662792 1.097187
vt 4.216065 1.557732
vt 4.216065 2.076975
vt 4.760903 1.557732
vt 4.760903 2.076975
vt -5.662792 1.038488
vt 4.216065 1.038488
vt 4.760902 1.038488
vt -5.662792 0.5192438
vt 4.216065 0.5192438
vt 4.760902 0.5192438
vt 4.216065 0
vt 4.760902 0
vt -5.600493 2.076975
vt -5.600493 1.557732
vt -6.106055 2.076975
vt -6.106055 1.557732
vt -6.162792 1.022401
vt -6.162792 -0.07478571
vt 6.162792 -0.07478571
vt 6.162792 1.022401
vt 5.43819 1.557732
vt 5.43819 2.076975
vt 5.943752 1.557732
vt 5.943752 2.076975
vt -5.600493 1.038488
vt -6.106055 1.038488
vt 5.43819 1.038488
vt 5.943752 1.038488
vt -5.600493 0.5192438
vt -6.106055 0.5192438
vt 5.43819 0.5192438
vt 5.943752 0.5192438
vt -5.600493 0
vt -6.106055 0
vt 5.43819 0
vt 5.943752 0
vt -6.162792 2.076975
vt -6.162792 1.557732
vt -7.081623 2.076975
vt -7.081623 1.557732
vt -7.081623 1.022401
vt -7.081623 -0.07478571
vt 7.081623 -0.07478571
vt 7.081623 1.022401
vt 6.162792 1.557732
vt 6.162792 2.076975
vt 7.081623 1.557732
vt 7.081623 2.076975
vt -6.162792 1.038488
vt -7.081623 1.038488
vt 6.162792 1.038488
vt 7.081623 1.038488
vt -6.162792 0.5192438
vt -7.081623 0.5192438
vt 6.162792 0.5192438
vt 7.081623 0.5192438
vt -6.162792 0
vt -7.081623 0
vt 6.162792 0
vt 7.081623 0
vt -5.497787 2.076975
vt -5.497787 1.557732
vt -6.147473 2.076975
vt -6.147473 1.557732
vt -7.581623 0.6075616
vt -7.581623 -0.4896255
vt 7.581623 -0.4896255
vt 7.581623 0.6075616
vt 4.797209 1.557732
vt 4.797209 2.076975
vt 5.446895 1.557732
vt 5.446895 2.076975
vt -5.497787 1.038488
vt -6.147473 1.038488
vt 4.797209 1.038488
vt 5.446895 1.038488
vt -5.497787 0.5192438
vt -6.147473 0.5192438
vt 4.797208 0.5192438
vt 5.446894 0.5192438
vt -5.497787 0
vt -6.147473 0
vt 4.797208 0
vt 5.446894 0
vt -7.581623 2.076975
vt -7.581623 1.557732
vt -8.68611 2.076975
vt -8.68611 1.557732
vt -8.68611 0.6075616
vt -8.68611 -0.4896255
vt 8.68611 -0.4896255
vt 8.68611 0.6075616
vt 7.581623 1.557732
vt 7.581623 2.076975
vt 8.68611 1.557732
vt 8.68611 2.076975
vt -7.581623 1.038488
vt -8.68611 1.038488
vt 7.581623 1.038488
vt 8.68611 1.038488
vt -7.581623 0.5192438
vt -8.68611 0.5192438
vt 7.581623 0.5192438
vt 8.68611 0.5192438
vt -7.581623 0
vt -8.68611 0
vt 7.581623 0
vt 8.68611 0
vt -6.655181 2.076975
vt -6.655181 1.557732
vt -7.280175 2.076975
vt -7.280175 1.557732
vt -9.18611 0.9825521
vt -9.18611 -0.114635
vt 9.18611 -0.114635
vt 9.18611 0.9825521
vt 7.313482 1.557732
vt 7.313482 2.076975
vt 7.938477 1.557732
vt 7.938477 2.076975
vt -6.655181 1.038488
vt -7.280175 1.038488
vt 7.313482 1.038488
vt 7.938477 1.038488
vt -6.65518 0.5192438
vt -7.280175 0.5192438
vt 7.313482 0.5192438
vt 7.938476 0.5192438
vt -6.65518 0
vt -7.280175 0
vt 7.313482 0
vt 7.938476 0
vt -9.18611 2.076975
vt -9.18611 1.557732
vt -11.10909 2.076975
vt -11.10909 1.557732
vt -11.10909 0.9825521
vt -11.10909 -0.114635
vt 11.10909 -0.114635
vt 11.10909 0.9825521
vt 9.18611 1.557732
vt 9.18611 2.076975
vt 11.10909 1.557732
vt 11.10909 2.076975
vt -9.18611 1.038488
vt -11.10909 1.038488
vt 9.18611 1.038488
vt 11.10909 1.038488
vt -9.18611 0.5192438
vt -11.10909 0.5192438
vt 9.18611 0.5192438
vt 11.10909 0.5192438
vt -9.18611 0
vt -11.10909 0
vt 9.18611 0
vt 11.10909 0
vt -9.922212 2.076975
vt -9.922212 1.557732
vt -10.48501 2.076975
vt -10.48501 1.557732
vt -11.60909 0.7242179
vt -11.60909 -0.3729692
vt 11.60909 -0.3729692
vt 11.60909 0.7242179
vt 9.41858 1.557732
vt 9.41858 2.076975
vt 9.981374 1.557732
vt 9.981374 2.076975
vt -9.922213 1.038488
vt -10.48501 1.038488
vt 9.418581 1.038488
vt 9.981374 1.038488
vt -9.922212 0.5192438
vt -10.48501 0.5192438
vt 9.41858 0.5192438
vt 9.981374 0.5192438
vt -9.922212 0
vt -10.48501 0
vt 9.41858 0
vt 9.981374 0
vt -11.42635 2.076975
vt -11.42635 1.557732
vt -12.83736 2.076975
vt -12.83736 1.557732
vt -12.98831 0.4264545
vt -12.98831 -0.6707325
vt 12.98831 -0.6707325
vt 12.98831 0.4264545
vt 11.19481 1.557732
vt 11.19481 2.076975
vt 12.60582 1.557732
vt 12.60582 2.076975
vt -11.42635 1.038488
vt -12.83736 1.038488
vt 11.19481 1.038488
vt 12.60582 1.038488
vt -11.42635 0.5192438
vt -12.83736 0.5192438
vt 11.19481 0.5192438
vt 12.60582 0.5192438
vt -11.42635 0
vt -12.83736 0
vt 11.19481 0
vt 12.60582 0
vt -12.98831 2.076975
vt -12.98831 1.557732
vt -16.82703 2.076975
vt -16.82703 1.557732
vt -16.82703 0.4264545
vt -16.82703 -0.6707325
vt 16.82703 -0.6707325
vt 16.82703 0.4264545
vt 12.98831 1.557732
vt 12.98831 2.076975
vt 16.82703 1.557732
vt 16.82703 2.076975
vt -12.98831 1.038488
vt -16.82703 1.038488
vt 12.98831 1.038488
vt 16.82703 1.038488
vt -12.98831 0.5192438
vt -16.82703 0.5192438
vt 12.98831 0.5192438
vt 16.82703 0.5192438
vt -12.98831 0
vt -16.82703 0
vt 12.98831 0
vt 16.82703 0
vt 4.527676 0.394729
vt 4.40732 -0.6529129
vt 4.749227 0.3921548
vt 4.749227 -0.6397945
vt 2.281561 2.553583
vt 2.433453 1.515151
vt 2.642961 2.553583
vt 2.642961 1.517598
vt 5.162792 4.938594
vt 5.362792 5.138594
vt 5.162792 4.469161
vt -5.162792 4.469161
vt -5.362792 5.138594
vt -5.162792 4.938594
vt 5.036266 5.293485
vt -5.036266 5.293485
vt 0.08616872 2.076975
vt 0.08616872 0
vt 0.4618688 2.076975
vt 0.4618688 0
vt -4.122826 6.211707
vt -3.926243 6.448523
vt -0.1355398 7.15845
vt -4.249352 6.256815
vt 0.1355398 7.15845
vt 3.926243 6.448523
vt 4.122826 6.211707
vt 4.122826 0
vt 4.249352 6.256815

vn 0.9998208 0.01893078 0
vn -0.1840808 0.9829111 0
vn 0 -1 0
vn -1 0 0
vn -0.7744553 0.6326287 8.963699E-09
vn 0 1 0
vn 0 0 -1
vn 0 0 1
vn 1 0 0
vn -0.3972623 0.9177052 0
vn 0.1479259 -0.9889985 0
vn -0.1479259 0.9889985 0
vn 0.6385234 -0.7696025 0
vn -0.6385232 0.7696027 0
vn -0.5999902 -0.8000073 0
vn 0.5999902 0.8000073 0
vn 0.4590212 -0.8884253 0
vn -0.4590212 0.8884253 0
vn 0.2110296 -0.9774797 0
vn -0.2110296 0.9774797 0
vn -0.1120387 0.9873675 0.1120387
vn -0.2703122 0.9454343 0.05601937
vn -0.4285856 0.9035012 0
vn -0.4275527 0.9013237 -0.06938531
vn -0.2695039 0.9475466 -0.03469265
vn -0.111455 0.9937695 0
vn -0.5102665 0.8600164 0

usemtl Lit
f 18/21/5 17/20/5 16/19/5
f 15/18/5 19/22/5 18/21/5
f 16/19/5 15/18/5 18/21/5
f 63/86/3 62/85/3 8/11/3
f 61/84/3 8/11/3 62/85/3
f 61/84/3 7/9/3 8/11/3
f 61/84/3 65/88/3 7/9/3
f 65/88/3 64/87/3 7/9/3
f 59/88/3 48/84/3 40/29/3
f 30/30/3 59/88/3 40/29/3
f 30/30/3 58/87/3 59/88/3
f 49/85/3 51/86/3 33/43/3
f 40/29/3 49/85/3 33/43/3
f 40/29/3 48/84/3 49/85/3
f 30/33/7 22/34/7 20/335/7
f 58/336/7 30/33/7 20/335/7
f 20/335/7 156/334/7 58/336/7
f 51/337/8 157/339/8 24/338/8
f 24/338/8 33/38/8 51/337/8
f 24/338/8 25/37/8 33/38/8
f 156/334/7 20/335/7 19/340/7
f 17/341/8 24/338/8 157/339/8
f 158/346/8 8/9/8 2/1/8
f 2/1/8 4/348/8 158/346/8
f 4/348/8 5/347/8 158/346/8
f 52/91/8 63/87/8 8/9/8
f 51/337/8 52/91/8 8/9/8
f 158/346/8 51/337/8 8/9/8
f 16/349/8 17/341/8 158/346/8
f 51/337/8 158/346/8 17/341/8
f 17/341/8 157/339/8 51/337/8
f 159/352/7 6/351/7 3/350/7
f 159/352/7 3/350/7 1/1/7
f 1/1/7 7/353/7 159/352/7
f 58/336/7 156/334/7 19/340/7
f 19/340/7 159/352/7 58/336/7
f 159/352/7 19/340/7 15/354/7
f 7/353/7 58/336/7 159/352/7
f 7/353/7 57/95/7 58/336/7
f 7/353/7 64/94/7 57/95/7
f 5/347/8 16/349/8 158/346/8
f 159/352/7 15/354/7 6/351/7
f 4/4/1 2/2/1 1/1/1
f 1/1/1 3/3/1 4/4/1
f 6/8/2 5/6/2 4/5/2
f 4/5/2 3/7/2 6/8/2
f 8/11/3 7/9/3 1/1/3
f 1/1/3 2/10/3 8/11/3
f 10/13/4 9/12/4 12/15/4
f 12/15/4 11/14/4 10/13/4
f 11/14/4 12/15/4 14/17/4
f 14/17/4 13/16/4 11/14/4
f 23/26/6 21/24/6 20/23/6
f 20/23/6 22/25/6 23/26/6
f 25/28/6 24/27/6 21/24/6
f 21/24/6 23/26/6 25/28/6
f 29/32/3 27/30/3 26/29/3
f 26/29/3 28/31/3 29/32/3
f 32/36/7 22/34/7 30/33/7
f 30/33/7 31/35/7 32/36/7
f 35/40/8 33/38/8 25/37/8
f 25/37/8 34/39/8 35/40/8
f 36/42/6 23/26/6 22/25/6
f 22/25/6 32/41/6 36/42/6
f 28/31/3 26/29/3 37/43/3
f 37/43/3 38/44/3 28/31/3
f 34/45/6 25/28/6 23/26/6
f 23/26/6 36/42/6 34/45/6
f 9/47/3 31/32/3 39/31/3
f 39/31/3 12/46/3 9/47/3
f 10/49/7 32/36/7 31/35/7
f 31/35/7 9/48/7 10/49/7
f 14/51/8 35/40/8 34/39/8
f 34/39/8 13/50/8 14/51/8
f 11/53/6 36/42/6 32/41/6
f 32/41/6 10/52/6 11/53/6
f 12/46/3 39/31/3 35/44/3
f 35/44/3 14/54/3 12/46/3
f 13/55/6 34/45/6 36/42/6
f 36/42/6 11/53/6 13/55/6
f 26/59/9 40/57/9 33/56/9
f 33/56/9 37/58/9 26/59/9
f 37/61/8 33/38/8 35/40/8
f 35/40/8 38/60/8 37/61/8
f 29/63/7 31/35/7 30/33/7
f 30/33/7 27/62/7 29/63/7
f 38/65/4 35/17/4 39/15/4
f 39/15/4 28/64/4 38/65/4
f 27/66/9 30/12/9 40/57/9
f 40/57/9 26/59/9 27/66/9
f 28/64/4 39/15/4 31/12/4
f 31/12/4 29/66/4 28/64/4
f 43/69/4 42/68/4 41/67/4
f 41/67/4 44/70/4 43/69/4
f 46/72/4 45/71/4 42/68/4
f 42/68/4 43/69/4 46/72/4
f 48/15/4 47/73/4 50/75/4
f 50/75/4 49/74/4 48/15/4
f 49/74/4 50/75/4 52/76/4
f 52/76/4 51/17/4 49/74/4
f 54/78/4 53/77/4 45/71/4
f 45/71/4 46/72/4 54/78/4
f 56/80/4 55/79/4 53/77/4
f 53/77/4 54/78/4 56/80/4
f 58/12/4 57/81/4 60/83/4
f 60/83/4 59/82/4 58/12/4
f 59/82/4 60/83/4 47/73/4
f 47/73/4 48/15/4 59/82/4
f 67/90/3 62/85/3 63/86/3
f 63/86/3 66/89/3 67/90/3
f 66/93/8 63/87/8 52/91/8
f 52/91/8 68/92/8 66/93/8
f 70/97/7 57/95/7 64/94/7
f 64/94/7 69/96/7 70/97/7
f 68/101/10 52/99/10 50/98/10
f 50/98/10 71/100/10 68/101/10
f 72/102/3 61/84/3 62/85/3
f 62/85/3 67/90/3 72/102/3
f 71/100/10 50/98/10 47/103/10
f 47/103/10 73/104/10 71/100/10
f 74/105/3 65/88/3 61/84/3
f 61/84/3 72/102/3 74/105/3
f 73/104/10 47/103/10 60/106/10
f 60/106/10 75/107/10 73/104/10
f 69/93/3 64/87/3 65/88/3
f 65/88/3 74/105/3 69/93/3
f 75/107/10 60/106/10 57/108/10
f 57/108/10 70/109/10 75/107/10
f 77/113/11 67/111/11 66/110/11
f 66/110/11 76/112/11 77/113/11
f 76/115/8 66/93/8 68/92/8
f 68/92/8 78/114/8 76/115/8
f 80/117/7 70/97/7 69/96/7
f 69/96/7 79/116/7 80/117/7
f 78/121/12 68/119/12 71/118/12
f 71/118/12 81/120/12 78/121/12
f 82/123/11 72/122/11 67/111/11
f 67/111/11 77/113/11 82/123/11
f 81/120/12 71/118/12 73/124/12
f 73/124/12 83/125/12 81/120/12
f 84/127/11 74/126/11 72/122/11
f 72/122/11 82/123/11 84/127/11
f 83/125/12 73/124/12 75/128/12
f 75/128/12 85/129/12 83/125/12
f 79/131/11 69/130/11 74/126/11
f 74/126/11 84/127/11 79/131/11
f 85/129/12 75/128/12 70/132/12
f 70/132/12 80/133/12 85/129/12
f 87/137/3 77/135/3 76/134/3
f 76/134/3 86/136/3 87/137/3
f 86/139/8 76/115/8 78/114/8
f 78/114/8 88/138/8 86/139/8
f 90/141/7 80/117/7 79/116/7
f 79/116/7 89/140/7 90/141/7
f 88/145/6 78/143/6 81/142/6
f 81/142/6 91/144/6 88/145/6
f 92/147/3 82/146/3 77/135/3
f 77/135/3 87/137/3 92/147/3
f 91/144/6 81/142/6 83/148/6
f 83/148/6 93/149/6 91/144/6
f 94/151/3 84/150/3 82/146/3
f 82/146/3 92/147/3 94/151/3
f 93/149/6 83/148/6 85/152/6
f 85/152/6 95/153/6 93/149/6
f 89/155/3 79/154/3 84/150/3
f 84/150/3 94/151/3 89/155/3
f 95/153/6 85/152/6 80/156/6
f 80/156/6 90/157/6 95/153/6
f 97/161/13 87/159/13 86/158/13
f 86/158/13 96/160/13 97/161/13
f 96/163/8 86/139/8 88/138/8
f 88/138/8 98/162/8 96/163/8
f 100/165/7 90/141/7 89/140/7
f 89/140/7 99/164/7 100/165/7
f 98/169/14 88/167/14 91/166/14
f 91/166/14 101/168/14 98/169/14
f 102/171/13 92/170/13 87/159/13
f 87/159/13 97/161/13 102/171/13
f 101/168/14 91/166/14 93/172/14
f 93/172/14 103/173/14 101/168/14
f 104/175/13 94/174/13 92/170/13
f 92/170/13 102/171/13 104/175/13
f 103/173/14 93/172/14 95/176/14
f 95/176/14 105/177/14 103/173/14
f 99/179/13 89/178/13 94/174/13
f 94/174/13 104/175/13 99/179/13
f 105/177/14 95/176/14 90/180/14
f 90/180/14 100/181/14 105/177/14
f 107/185/3 97/183/3 96/182/3
f 96/182/3 106/184/3 107/185/3
f 106/187/8 96/163/8 98/162/8
f 98/162/8 108/186/8 106/187/8
f 110/189/7 100/165/7 99/164/7
f 99/164/7 109/188/7 110/189/7
f 108/193/6 98/191/6 101/190/6
f 101/190/6 111/192/6 108/193/6
f 112/195/3 102/194/3 97/183/3
f 97/183/3 107/185/3 112/195/3
f 111/192/6 101/190/6 103/196/6
f 103/196/6 113/197/6 111/192/6
f 114/199/3 104/198/3 102/194/3
f 102/194/3 112/195/3 114/199/3
f 113/197/6 103/196/6 105/200/6
f 105/200/6 115/201/6 113/197/6
f 109/203/3 99/202/3 104/198/3
f 104/198/3 114/199/3 109/203/3
f 115/201/6 105/200/6 100/204/6
f 100/204/6 110/205/6 115/201/6
f 117/209/15 107/207/15 106/206/15
f 106/206/15 116/208/15 117/209/15
f 116/211/8 106/187/8 108/186/8
f 108/186/8 118/210/8 116/211/8
f 120/213/7 110/189/7 109/188/7
f 109/188/7 119/212/7 120/213/7
f 118/217/16 108/215/16 111/214/16
f 111/214/16 121/216/16 118/217/16
f 122/219/15 112/218/15 107/207/15
f 107/207/15 117/209/15 122/219/15
f 121/216/16 111/214/16 113/220/16
f 113/220/16 123/221/16 121/216/16
f 124/223/15 114/222/15 112/218/15
f 112/218/15 122/219/15 124/223/15
f 123/221/16 113/220/16 115/224/16
f 115/224/16 125/225/16 123/221/16
f 119/227/15 109/226/15 114/222/15
f 114/222/15 124/223/15 119/227/15
f 125/225/16 115/224/16 110/228/16
f 110/228/16 120/229/16 125/225/16
f 127/233/3 117/231/3 116/230/3
f 116/230/3 126/232/3 127/233/3
f 126/235/8 116/211/8 118/210/8
f 118/210/8 128/234/8 126/235/8
f 130/237/7 120/213/7 119/212/7
f 119/212/7 129/236/7 130/237/7
f 128/241/6 118/239/6 121/238/6
f 121/238/6 131/240/6 128/241/6
f 132/243/3 122/242/3 117/231/3
f 117/231/3 127/233/3 132/243/3
f 131/240/6 121/238/6 123/244/6
f 123/244/6 133/245/6 131/240/6
f 134/247/3 124/246/3 122/242/3
f 122/242/3 132/243/3 134/247/3
f 133/245/6 123/244/6 125/248/6
f 125/248/6 135/249/6 133/245/6
f 129/251/3 119/250/3 124/246/3
f 124/246/3 134/247/3 129/251/3
f 135/249/6 125/248/6 120/252/6
f 120/252/6 130/253/6 135/249/6
f 137/257/17 127/255/17 126/254/17
f 126/254/17 136/256/17 137/257/17
f 136/259/8 126/235/8 128/234/8
f 128/234/8 138/258/8 136/259/8
f 140/261/7 130/237/7 129/236/7
f 129/236/7 139/260/7 140/261/7
f 138/265/18 128/263/18 131/262/18
f 131/262/18 141/264/18 138/265/18
f 142/267/17 132/266/17 127/255/17
f 127/255/17 137/257/17 142/267/17
f 141/264/18 131/262/18 133/268/18
f 133/268/18 143/269/18 141/264/18
f 144/271/17 134/270/17 132/266/17
f 132/266/17 142/267/17 144/271/17
f 143/269/18 133/268/18 135/272/18
f 135/272/18 145/273/18 143/269/18
f 139/275/17 129/274/17 134/270/17
f 134/270/17 144/271/17 139/275/17
f 145/273/18 135/272/18 130/276/18
f 130/276/18 140/277/18 145/273/18
f 147/281/19 137/279/19 136/278/19
f 136/278/19 146/280/19 147/281/19
f 146/283/8 136/259/8 138/258/8
f 138/258/8 148/282/8 146/283/8
f 150/285/7 140/261/7 139/260/7
f 139/260/7 149/284/7 150/285/7
f 148/289/20 138/287/20 141/286/20
f 141/286/20 151/288/20 148/289/20
f 152/291/19 142/290/19 137/279/19
f 137/279/19 147/281/19 152/291/19
f 151/288/20 141/286/20 143/292/20
f 143/292/20 153/293/20 151/288/20
f 154/295/19 144/294/19 142/290/19
f 142/290/19 152/291/19 154/295/19
f 153/293/20 143/292/20 145/296/20
f 145/296/20 155/297/20 153/293/20
f 149/299/19 139/298/19 144/294/19
f 144/294/19 154/295/19 149/299/19
f 155/297/20 145/296/20 140/300/20
f 140/300/20 150/301/20 155/297/20
f 42/305/3 147/303/3 146/302/3
f 146/302/3 41/304/3 42/305/3
f 41/307/8 146/283/8 148/282/8
f 148/282/8 44/306/8 41/307/8
f 56/309/7 150/285/7 149/284/7
f 149/284/7 55/308/7 56/309/7
f 44/313/6 148/311/6 151/310/6
f 151/310/6 43/312/6 44/313/6
f 45/315/3 152/314/3 147/303/3
f 147/303/3 42/305/3 45/315/3
f 43/312/6 151/310/6 153/316/6
f 153/316/6 46/317/6 43/312/6
f 53/319/3 154/318/3 152/314/3
f 152/314/3 45/315/3 53/319/3
f 46/317/6 153/316/6 155/320/6
f 155/320/6 54/321/6 46/317/6
f 55/323/3 149/322/3 154/318/3
f 154/318/3 53/319/3 55/323/3
f 54/321/6 155/320/6 150/324/6
f 150/324/6 56/325/6 54/321/6
f 21/328/22 18/326/21 19/327/22
f 19/327/22 20/329/23 21/328/22
f 24/332/25 17/330/24 18/331/25
f 18/331/25 21/333/26 24/332/25
f 16/344/27 5/342/27 6/343/27
f 6/343/27 15/345/27 16/344/27

